<mxfile host="Electron" agent="Mozilla/5.0 (Windows NT 10.0; Win64; x64) AppleWebKit/537.36 (KHTML, like Gecko) draw.io/27.0.9 Chrome/134.0.6998.205 Electron/35.4.0 Safari/537.36" version="27.0.9">
  <diagram name="Seite-1" id="edntLq-rD1XludbRQ7oC">
    <mxGraphModel dx="2893" dy="1201" grid="1" gridSize="10" guides="1" tooltips="1" connect="1" arrows="1" fold="1" page="1" pageScale="1" pageWidth="827" pageHeight="1169" math="0" shadow="0">
      <root>
        <mxCell id="0" />
        <mxCell id="1" parent="0" />
        <mxCell id="U06THFbZJZRiATKQvTop-1" value="&lt;p style=&quot;margin:0px;margin-top:4px;text-align:center;&quot;&gt;&lt;b&gt;&lt;font&gt;DigitalProductPassport&lt;/font&gt;&lt;/b&gt;&lt;/p&gt;&lt;hr style=&quot;border-style:solid;&quot;&gt;&lt;div style=&quot;height:2px;&quot;&gt;&lt;/div&gt;" style="verticalAlign=top;align=left;overflow=fill;html=1;whiteSpace=wrap;fontFamily=Times New Roman;fontSize=18;" vertex="1" parent="1">
          <mxGeometry x="410" y="290" width="200" height="100" as="geometry" />
        </mxCell>
        <mxCell id="U06THFbZJZRiATKQvTop-2" value="&lt;p style=&quot;margin:0px;margin-top:4px;text-align:center;&quot;&gt;&lt;b&gt;&lt;font&gt;InsectProteinData&lt;/font&gt;&lt;/b&gt;&lt;/p&gt;&lt;hr style=&quot;border-style:solid;&quot;&gt;&lt;div style=&quot;height:2px;&quot;&gt;&lt;/div&gt;" style="verticalAlign=top;align=left;overflow=fill;html=1;whiteSpace=wrap;fontFamily=Times New Roman;fontSize=18;" vertex="1" parent="1">
          <mxGeometry x="250" y="530" width="170" height="80" as="geometry" />
        </mxCell>
        <mxCell id="U06THFbZJZRiATKQvTop-3" value="&lt;p style=&quot;margin:0px;margin-top:4px;text-align:center;&quot;&gt;&lt;b&gt;&lt;font&gt;SupplyChainActor&lt;/font&gt;&lt;/b&gt;&lt;/p&gt;&lt;hr style=&quot;border-style:solid;&quot;&gt;&lt;div style=&quot;height:2px;&quot;&gt;&lt;/div&gt;" style="verticalAlign=top;align=left;overflow=fill;html=1;whiteSpace=wrap;fontFamily=Times New Roman;fontSize=18;" vertex="1" parent="1">
          <mxGeometry x="490" y="560" width="160" height="80" as="geometry" />
        </mxCell>
        <mxCell id="U06THFbZJZRiATKQvTop-5" value="&lt;p style=&quot;margin:0px;margin-top:4px;text-align:center;&quot;&gt;&lt;font&gt;&lt;b style=&quot;background-color: transparent; color: light-dark(rgb(0, 0, 0), rgb(255, 255, 255));&quot;&gt;Reg&lt;/b&gt;&lt;b&gt;Certifs&lt;/b&gt;&lt;/font&gt;&lt;/p&gt;&lt;hr style=&quot;border-style:solid;&quot;&gt;&lt;div style=&quot;height:2px;&quot;&gt;&lt;/div&gt;" style="verticalAlign=top;align=left;overflow=fill;html=1;whiteSpace=wrap;fontFamily=Times New Roman;fontSize=18;" vertex="1" parent="1">
          <mxGeometry x="720" y="490" width="160" height="80" as="geometry" />
        </mxCell>
        <mxCell id="U06THFbZJZRiATKQvTop-6" value="&lt;p style=&quot;margin:0px;margin-top:4px;text-align:center;&quot;&gt;&lt;b&gt;&lt;font&gt;QualityAssessment&lt;/font&gt;&lt;/b&gt;&lt;/p&gt;&lt;hr style=&quot;border-style:solid;&quot;&gt;&lt;div style=&quot;height:2px;&quot;&gt;&lt;/div&gt;" style="verticalAlign=top;align=left;overflow=fill;html=1;whiteSpace=wrap;fontFamily=Times New Roman;fontSize=18;" vertex="1" parent="1">
          <mxGeometry x="30" y="320" width="160" height="70" as="geometry" />
        </mxCell>
        <mxCell id="U06THFbZJZRiATKQvTop-7" value="&lt;font style=&quot;font-size: 13px;&quot;&gt;&lt;b style=&quot;&quot;&gt;1&lt;/b&gt;&lt;/font&gt;" style="endArrow=open;html=1;endSize=12;startArrow=diamondThin;startSize=14;startFill=0;edgeStyle=orthogonalEdgeStyle;align=left;verticalAlign=bottom;rounded=0;exitX=0;exitY=0.5;exitDx=0;exitDy=0;entryX=1;entryY=0.5;entryDx=0;entryDy=0;fontFamily=Times New Roman;" edge="1" parent="1" source="U06THFbZJZRiATKQvTop-1" target="U06THFbZJZRiATKQvTop-6">
          <mxGeometry x="-0.8298" relative="1" as="geometry">
            <mxPoint x="360" y="750" as="sourcePoint" />
            <mxPoint x="520" y="750" as="targetPoint" />
            <mxPoint as="offset" />
          </mxGeometry>
        </mxCell>
        <mxCell id="U06THFbZJZRiATKQvTop-8" value="1" style="endArrow=open;html=1;endSize=12;startArrow=diamondThin;startSize=14;startFill=0;edgeStyle=orthogonalEdgeStyle;align=left;verticalAlign=bottom;rounded=0;exitX=0.75;exitY=1;exitDx=0;exitDy=0;entryX=0.5;entryY=0;entryDx=0;entryDy=0;fontFamily=Times New Roman;" edge="1" parent="1" source="U06THFbZJZRiATKQvTop-1" target="U06THFbZJZRiATKQvTop-5">
          <mxGeometry x="-1" y="3" relative="1" as="geometry">
            <mxPoint x="370" y="760" as="sourcePoint" />
            <mxPoint x="530" y="760" as="targetPoint" />
          </mxGeometry>
        </mxCell>
        <mxCell id="U06THFbZJZRiATKQvTop-9" value="&lt;font style=&quot;font-size: 13px;&quot;&gt;&lt;b style=&quot;&quot;&gt;1&lt;/b&gt;&lt;/font&gt;" style="endArrow=open;html=1;endSize=12;startArrow=diamondThin;startSize=14;startFill=0;edgeStyle=orthogonalEdgeStyle;align=left;verticalAlign=bottom;rounded=0;entryX=0.5;entryY=0;entryDx=0;entryDy=0;fontFamily=Times New Roman;exitX=1;exitY=0.5;exitDx=0;exitDy=0;" edge="1" parent="1" source="U06THFbZJZRiATKQvTop-1">
          <mxGeometry x="-0.907" relative="1" as="geometry">
            <mxPoint x="620" y="310" as="sourcePoint" />
            <mxPoint x="1065" y="530" as="targetPoint" />
            <mxPoint as="offset" />
          </mxGeometry>
        </mxCell>
        <mxCell id="U06THFbZJZRiATKQvTop-10" value="&lt;font style=&quot;font-size: 13px;&quot;&gt;&lt;b style=&quot;&quot;&gt;1&lt;/b&gt;&lt;/font&gt;" style="endArrow=open;html=1;endSize=12;startArrow=diamondThin;startSize=14;startFill=0;edgeStyle=orthogonalEdgeStyle;align=left;verticalAlign=bottom;rounded=0;exitX=0.355;exitY=1.02;exitDx=0;exitDy=0;exitPerimeter=0;entryX=0.5;entryY=0;entryDx=0;entryDy=0;fontFamily=Times New Roman;" edge="1" parent="1" source="U06THFbZJZRiATKQvTop-1" target="U06THFbZJZRiATKQvTop-3">
          <mxGeometry x="-0.7586" y="9" relative="1" as="geometry">
            <mxPoint x="390" y="780" as="sourcePoint" />
            <mxPoint x="550" y="780" as="targetPoint" />
            <mxPoint as="offset" />
          </mxGeometry>
        </mxCell>
        <mxCell id="U06THFbZJZRiATKQvTop-11" value="&lt;font style=&quot;font-size: 13px;&quot;&gt;&lt;b style=&quot;&quot;&gt;1&lt;/b&gt;&lt;/font&gt;" style="endArrow=open;html=1;endSize=12;startArrow=diamondThin;startSize=14;startFill=0;edgeStyle=orthogonalEdgeStyle;align=left;verticalAlign=bottom;rounded=0;exitX=0.1;exitY=1.01;exitDx=0;exitDy=0;exitPerimeter=0;entryX=0.5;entryY=0;entryDx=0;entryDy=0;fontFamily=Times New Roman;" edge="1" parent="1" source="U06THFbZJZRiATKQvTop-1" target="U06THFbZJZRiATKQvTop-2">
          <mxGeometry x="-0.8443" y="-20" relative="1" as="geometry">
            <mxPoint x="400" y="790" as="sourcePoint" />
            <mxPoint x="560" y="790" as="targetPoint" />
            <mxPoint as="offset" />
          </mxGeometry>
        </mxCell>
        <mxCell id="U06THFbZJZRiATKQvTop-12" value="&lt;p style=&quot;margin:0px;margin-top:4px;text-align:center;&quot;&gt;&lt;b&gt;&lt;font&gt;StorageAndHandling&lt;/font&gt;&lt;/b&gt;&lt;/p&gt;&lt;hr style=&quot;border-style:solid;&quot;&gt;&lt;div style=&quot;height:2px;&quot;&gt;&lt;/div&gt;" style="verticalAlign=top;align=left;overflow=fill;html=1;whiteSpace=wrap;fontFamily=Times New Roman;fontSize=18;" vertex="1" parent="1">
          <mxGeometry x="-190" y="500" width="210" height="70" as="geometry" />
        </mxCell>
        <mxCell id="U06THFbZJZRiATKQvTop-13" value="&lt;font style=&quot;font-size: 13px;&quot;&gt;&lt;b style=&quot;&quot;&gt;1&lt;/b&gt;&lt;/font&gt;" style="endArrow=open;html=1;endSize=12;startArrow=diamondThin;startSize=14;startFill=0;edgeStyle=orthogonalEdgeStyle;align=left;verticalAlign=bottom;rounded=0;exitX=0.25;exitY=1;exitDx=0;exitDy=0;fontFamily=Times New Roman;" edge="1" parent="1" source="U06THFbZJZRiATKQvTop-6" target="U06THFbZJZRiATKQvTop-12">
          <mxGeometry x="-0.7576" y="8" relative="1" as="geometry">
            <mxPoint x="360" y="750" as="sourcePoint" />
            <mxPoint x="520" y="750" as="targetPoint" />
            <mxPoint as="offset" />
          </mxGeometry>
        </mxCell>
        <mxCell id="U06THFbZJZRiATKQvTop-14" value="&lt;p style=&quot;margin:0px;margin-top:4px;text-align:center;&quot;&gt;&lt;b&gt;&lt;font&gt;LaboratoryTest&lt;/font&gt;&lt;/b&gt;&lt;/p&gt;&lt;hr style=&quot;border-style:solid;&quot;&gt;&lt;div style=&quot;height:2px;&quot;&gt;&lt;/div&gt;" style="verticalAlign=top;align=left;overflow=fill;html=1;whiteSpace=wrap;fontFamily=Times New Roman;fontSize=18;" vertex="1" parent="1">
          <mxGeometry x="-380" y="660" width="170" height="70" as="geometry" />
        </mxCell>
        <mxCell id="U06THFbZJZRiATKQvTop-15" value="&lt;font style=&quot;font-size: 13px;&quot;&gt;&lt;b style=&quot;&quot;&gt;1&lt;/b&gt;&lt;/font&gt;" style="endArrow=open;html=1;endSize=12;startArrow=diamondThin;startSize=14;startFill=0;edgeStyle=orthogonalEdgeStyle;align=left;verticalAlign=bottom;rounded=0;exitX=0;exitY=0.5;exitDx=0;exitDy=0;entryX=0.5;entryY=0;entryDx=0;entryDy=0;fontFamily=Times New Roman;" edge="1" parent="1" source="U06THFbZJZRiATKQvTop-6" target="U06THFbZJZRiATKQvTop-14">
          <mxGeometry x="-0.9048" y="-5" relative="1" as="geometry">
            <mxPoint x="360" y="750" as="sourcePoint" />
            <mxPoint x="520" y="750" as="targetPoint" />
            <mxPoint as="offset" />
          </mxGeometry>
        </mxCell>
        <mxCell id="U06THFbZJZRiATKQvTop-16" value="" style="endArrow=none;html=1;edgeStyle=orthogonalEdgeStyle;rounded=0;exitX=1;exitY=0.5;exitDx=0;exitDy=0;entryX=0.25;entryY=0;entryDx=0;entryDy=0;fontFamily=Times New Roman;" edge="1" parent="1" source="U06THFbZJZRiATKQvTop-12" target="U06THFbZJZRiATKQvTop-43">
          <mxGeometry relative="1" as="geometry">
            <mxPoint x="360" y="750" as="sourcePoint" />
            <mxPoint x="520" y="750" as="targetPoint" />
          </mxGeometry>
        </mxCell>
        <mxCell id="U06THFbZJZRiATKQvTop-17" value="1..*" style="edgeLabel;resizable=0;html=1;align=left;verticalAlign=bottom;fontSize=13;fontStyle=1;fontFamily=Times New Roman;" connectable="0" vertex="1" parent="U06THFbZJZRiATKQvTop-16">
          <mxGeometry x="-1" relative="1" as="geometry" />
        </mxCell>
        <mxCell id="U06THFbZJZRiATKQvTop-18" value="0..*" style="edgeLabel;resizable=0;html=1;align=right;verticalAlign=bottom;fontSize=13;fontStyle=1;fontFamily=Times New Roman;" connectable="0" vertex="1" parent="U06THFbZJZRiATKQvTop-16">
          <mxGeometry x="1" relative="1" as="geometry">
            <mxPoint x="-10" as="offset" />
          </mxGeometry>
        </mxCell>
        <mxCell id="U06THFbZJZRiATKQvTop-19" value="" style="endArrow=none;html=1;edgeStyle=orthogonalEdgeStyle;rounded=0;exitX=1;exitY=0.5;exitDx=0;exitDy=0;entryX=0;entryY=0.5;entryDx=0;entryDy=0;fontFamily=Times New Roman;" edge="1" parent="1" source="U06THFbZJZRiATKQvTop-14" target="U06THFbZJZRiATKQvTop-43">
          <mxGeometry relative="1" as="geometry">
            <mxPoint x="360" y="750" as="sourcePoint" />
            <mxPoint x="520" y="750" as="targetPoint" />
          </mxGeometry>
        </mxCell>
        <mxCell id="U06THFbZJZRiATKQvTop-20" value="1..*" style="edgeLabel;resizable=0;html=1;align=left;verticalAlign=bottom;fontFamily=Times New Roman;fontStyle=1;fontSize=13;" connectable="0" vertex="1" parent="U06THFbZJZRiATKQvTop-19">
          <mxGeometry x="-1" relative="1" as="geometry" />
        </mxCell>
        <mxCell id="U06THFbZJZRiATKQvTop-21" value="1..*" style="edgeLabel;resizable=0;html=1;align=right;verticalAlign=bottom;fontFamily=Times New Roman;fontStyle=1;fontSize=13;" connectable="0" vertex="1" parent="U06THFbZJZRiATKQvTop-19">
          <mxGeometry x="1" relative="1" as="geometry">
            <mxPoint y="20" as="offset" />
          </mxGeometry>
        </mxCell>
        <mxCell id="U06THFbZJZRiATKQvTop-22" value="&lt;font&gt;&lt;span&gt;&amp;nbsp;carried on&amp;nbsp;&lt;/span&gt;&lt;/font&gt;" style="edgeLabel;html=1;align=center;verticalAlign=middle;resizable=0;points=[];fontFamily=Times New Roman;fontSize=15;" vertex="1" connectable="0" parent="U06THFbZJZRiATKQvTop-19">
          <mxGeometry x="-0.1008" y="-1" relative="1" as="geometry">
            <mxPoint as="offset" />
          </mxGeometry>
        </mxCell>
        <mxCell id="U06THFbZJZRiATKQvTop-23" value="&lt;p style=&quot;margin:0px;margin-top:4px;text-align:center;&quot;&gt;&lt;b&gt;&lt;font&gt;SupplyChainEvent&lt;/font&gt;&lt;/b&gt;&lt;/p&gt;&lt;hr style=&quot;border-style:solid;&quot;&gt;&lt;div style=&quot;height:2px;&quot;&gt;&lt;/div&gt;" style="verticalAlign=top;align=left;overflow=fill;html=1;whiteSpace=wrap;fontFamily=Times New Roman;fontSize=18;" vertex="1" parent="1">
          <mxGeometry x="480" y="800" width="190" height="70" as="geometry" />
        </mxCell>
        <mxCell id="U06THFbZJZRiATKQvTop-24" value="" style="endArrow=none;html=1;edgeStyle=orthogonalEdgeStyle;rounded=0;exitX=0.5;exitY=1;exitDx=0;exitDy=0;entryX=0.5;entryY=0;entryDx=0;entryDy=0;fontFamily=Times New Roman;" edge="1" parent="1" source="U06THFbZJZRiATKQvTop-3" target="U06THFbZJZRiATKQvTop-23">
          <mxGeometry relative="1" as="geometry">
            <mxPoint x="30" y="555" as="sourcePoint" />
            <mxPoint x="260" y="580" as="targetPoint" />
          </mxGeometry>
        </mxCell>
        <mxCell id="U06THFbZJZRiATKQvTop-25" value="1" style="edgeLabel;resizable=0;html=1;align=left;verticalAlign=bottom;fontSize=13;fontStyle=1;fontFamily=Times New Roman;" connectable="0" vertex="1" parent="U06THFbZJZRiATKQvTop-24">
          <mxGeometry x="-1" relative="1" as="geometry">
            <mxPoint y="20" as="offset" />
          </mxGeometry>
        </mxCell>
        <mxCell id="U06THFbZJZRiATKQvTop-26" value="1" style="edgeLabel;resizable=0;html=1;align=right;verticalAlign=bottom;fontSize=13;fontStyle=1;fontFamily=Times New Roman;" connectable="0" vertex="1" parent="U06THFbZJZRiATKQvTop-24">
          <mxGeometry x="1" relative="1" as="geometry">
            <mxPoint x="-10" as="offset" />
          </mxGeometry>
        </mxCell>
        <mxCell id="U06THFbZJZRiATKQvTop-27" value="&lt;font&gt;performs&lt;/font&gt;" style="edgeLabel;html=1;align=center;verticalAlign=middle;resizable=0;points=[];fontFamily=Times New Roman;fontSize=15;" vertex="1" connectable="0" parent="U06THFbZJZRiATKQvTop-24">
          <mxGeometry x="-0.2392" y="-1" relative="1" as="geometry">
            <mxPoint as="offset" />
          </mxGeometry>
        </mxCell>
        <mxCell id="U06THFbZJZRiATKQvTop-28" value="" style="endArrow=none;html=1;edgeStyle=orthogonalEdgeStyle;rounded=0;exitX=1;exitY=0.5;exitDx=0;exitDy=0;entryX=0;entryY=0.5;entryDx=0;entryDy=0;fontFamily=Times New Roman;" edge="1" parent="1" source="U06THFbZJZRiATKQvTop-43" target="U06THFbZJZRiATKQvTop-23">
          <mxGeometry relative="1" as="geometry">
            <mxPoint x="40" y="565" as="sourcePoint" />
            <mxPoint x="270" y="590" as="targetPoint" />
          </mxGeometry>
        </mxCell>
        <mxCell id="U06THFbZJZRiATKQvTop-29" value="1..*" style="edgeLabel;resizable=0;html=1;align=left;verticalAlign=bottom;fontSize=13;fontStyle=1;fontFamily=Times New Roman;" connectable="0" vertex="1" parent="U06THFbZJZRiATKQvTop-28">
          <mxGeometry x="-1" relative="1" as="geometry">
            <mxPoint y="20" as="offset" />
          </mxGeometry>
        </mxCell>
        <mxCell id="U06THFbZJZRiATKQvTop-30" value="0..*" style="edgeLabel;resizable=0;html=1;align=right;verticalAlign=bottom;fontSize=13;fontStyle=1;fontFamily=Times New Roman;" connectable="0" vertex="1" parent="U06THFbZJZRiATKQvTop-28">
          <mxGeometry x="1" relative="1" as="geometry">
            <mxPoint x="-10" as="offset" />
          </mxGeometry>
        </mxCell>
        <mxCell id="U06THFbZJZRiATKQvTop-31" value="&lt;font&gt;&lt;span&gt;&amp;nbsp;applies&lt;/span&gt;&lt;/font&gt;" style="edgeLabel;html=1;align=center;verticalAlign=middle;resizable=0;points=[];fontFamily=Times New Roman;fontSize=14;" vertex="1" connectable="0" parent="U06THFbZJZRiATKQvTop-28">
          <mxGeometry x="-0.2392" y="-1" relative="1" as="geometry">
            <mxPoint as="offset" />
          </mxGeometry>
        </mxCell>
        <mxCell id="U06THFbZJZRiATKQvTop-32" value="&lt;p style=&quot;margin:0px;margin-top:4px;text-align:center;&quot;&gt;&lt;b&gt;&lt;font&gt;SustainabilityReport&lt;/font&gt;&lt;/b&gt;&lt;/p&gt;&lt;hr style=&quot;border-style:solid;&quot;&gt;&lt;div style=&quot;height:2px;&quot;&gt;&lt;/div&gt;" style="verticalAlign=top;align=left;overflow=fill;html=1;whiteSpace=wrap;fontFamily=Times New Roman;fontSize=18;" vertex="1" parent="1">
          <mxGeometry x="970" y="805" width="190" height="75" as="geometry" />
        </mxCell>
        <mxCell id="U06THFbZJZRiATKQvTop-33" value="" style="endArrow=none;html=1;edgeStyle=orthogonalEdgeStyle;rounded=0;exitX=0.5;exitY=1;exitDx=0;exitDy=0;entryX=0.5;entryY=0;entryDx=0;entryDy=0;fontFamily=Times New Roman;" edge="1" parent="1" target="U06THFbZJZRiATKQvTop-32">
          <mxGeometry relative="1" as="geometry">
            <mxPoint x="1065" y="610" as="sourcePoint" />
            <mxPoint x="920" y="1100" as="targetPoint" />
          </mxGeometry>
        </mxCell>
        <mxCell id="U06THFbZJZRiATKQvTop-34" value="1" style="edgeLabel;resizable=0;html=1;align=left;verticalAlign=bottom;fontSize=13;fontStyle=1;fontFamily=Times New Roman;" connectable="0" vertex="1" parent="U06THFbZJZRiATKQvTop-33">
          <mxGeometry x="-1" relative="1" as="geometry">
            <mxPoint y="20" as="offset" />
          </mxGeometry>
        </mxCell>
        <mxCell id="U06THFbZJZRiATKQvTop-35" value="1" style="edgeLabel;resizable=0;html=1;align=right;verticalAlign=bottom;fontSize=13;fontStyle=1;fontFamily=Times New Roman;" connectable="0" vertex="1" parent="U06THFbZJZRiATKQvTop-33">
          <mxGeometry x="1" relative="1" as="geometry">
            <mxPoint x="-10" as="offset" />
          </mxGeometry>
        </mxCell>
        <mxCell id="U06THFbZJZRiATKQvTop-36" value="&lt;font face=&quot;Times New Roman&quot;&gt;&amp;nbsp;&lt;font&gt;generates&lt;/font&gt;&amp;nbsp;&lt;/font&gt;" style="edgeLabel;html=1;align=center;verticalAlign=middle;resizable=0;points=[];fontSize=15;" vertex="1" connectable="0" parent="U06THFbZJZRiATKQvTop-33">
          <mxGeometry x="-0.0017" y="2" relative="1" as="geometry">
            <mxPoint as="offset" />
          </mxGeometry>
        </mxCell>
        <mxCell id="U06THFbZJZRiATKQvTop-37" value="&lt;p style=&quot;margin:0px;margin-top:4px;text-align:center;&quot;&gt;&lt;b&gt;&lt;font&gt;Document&lt;/font&gt;&lt;/b&gt;&lt;/p&gt;&lt;hr style=&quot;border-style:solid;&quot;&gt;&lt;div style=&quot;height:2px;&quot;&gt;&lt;/div&gt;" style="verticalAlign=top;align=left;overflow=fill;html=1;whiteSpace=wrap;fontFamily=Times New Roman;fontSize=18;" vertex="1" parent="1">
          <mxGeometry x="770" y="710" width="150" height="70" as="geometry" />
        </mxCell>
        <mxCell id="U06THFbZJZRiATKQvTop-38" value="1" style="endArrow=open;html=1;endSize=12;startArrow=diamondThin;startSize=14;startFill=0;edgeStyle=orthogonalEdgeStyle;align=left;verticalAlign=bottom;rounded=0;exitX=0.5;exitY=1;exitDx=0;exitDy=0;entryX=0.5;entryY=0;entryDx=0;entryDy=0;fontFamily=Times New Roman;fontStyle=1;fontSize=13;" edge="1" parent="1" source="U06THFbZJZRiATKQvTop-5" target="U06THFbZJZRiATKQvTop-37">
          <mxGeometry x="-0.7074" y="10" relative="1" as="geometry">
            <mxPoint x="140" y="920" as="sourcePoint" />
            <mxPoint x="300" y="920" as="targetPoint" />
            <mxPoint y="-1" as="offset" />
          </mxGeometry>
        </mxCell>
        <mxCell id="U06THFbZJZRiATKQvTop-39" value="1..*" style="edgeLabel;resizable=0;html=1;align=left;verticalAlign=bottom;fontSize=13;fontStyle=1;fontFamily=Times New Roman;" connectable="0" vertex="1" parent="1">
          <mxGeometry x="-280" y="660" as="geometry" />
        </mxCell>
        <mxCell id="U06THFbZJZRiATKQvTop-40" value="1..*" style="edgeLabel;resizable=0;html=1;align=left;verticalAlign=bottom;fontSize=13;fontStyle=1;fontFamily=Times New Roman;" connectable="0" vertex="1" parent="1">
          <mxGeometry x="-110" y="490" as="geometry" />
        </mxCell>
        <mxCell id="U06THFbZJZRiATKQvTop-41" value="1..*" style="edgeLabel;resizable=0;html=1;align=left;verticalAlign=bottom;fontSize=13;fontStyle=1;fontFamily=Times New Roman;" connectable="0" vertex="1" parent="1">
          <mxGeometry x="540" y="560" as="geometry" />
        </mxCell>
        <mxCell id="U06THFbZJZRiATKQvTop-42" value="1..*" style="edgeLabel;resizable=0;html=1;align=left;verticalAlign=bottom;fontSize=13;fontStyle=1;fontFamily=Times New Roman;" connectable="0" vertex="1" parent="1">
          <mxGeometry x="1070" y="530" as="geometry">
            <mxPoint x="9" y="-5" as="offset" />
          </mxGeometry>
        </mxCell>
        <mxCell id="U06THFbZJZRiATKQvTop-43" value="&lt;p style=&quot;margin:0px;margin-top:4px;text-align:center;&quot;&gt;&lt;b&gt;&lt;font&gt;Batch&lt;/font&gt;&lt;/b&gt;&lt;/p&gt;&lt;hr style=&quot;border-style:solid;&quot;&gt;&lt;div style=&quot;height:2px;&quot;&gt;&lt;/div&gt;" style="verticalAlign=top;align=left;overflow=fill;html=1;whiteSpace=wrap;fontFamily=Times New Roman;fontSize=18;" vertex="1" parent="1">
          <mxGeometry x="130" y="760" width="150" height="70" as="geometry" />
        </mxCell>
        <mxCell id="U06THFbZJZRiATKQvTop-44" value="" style="endArrow=none;html=1;edgeStyle=orthogonalEdgeStyle;rounded=0;entryX=0.5;entryY=1;entryDx=0;entryDy=0;exitX=0.25;exitY=1;exitDx=0;exitDy=0;" edge="1" parent="1" source="U06THFbZJZRiATKQvTop-43" target="U06THFbZJZRiATKQvTop-32">
          <mxGeometry relative="1" as="geometry">
            <mxPoint x="330" y="830" as="sourcePoint" />
            <mxPoint x="490" y="830" as="targetPoint" />
            <Array as="points">
              <mxPoint x="168" y="930" />
              <mxPoint x="1055" y="930" />
            </Array>
          </mxGeometry>
        </mxCell>
        <mxCell id="U06THFbZJZRiATKQvTop-45" value="&lt;font face=&quot;Times New Roman&quot; style=&quot;font-size: 14px;&quot;&gt;1&lt;/font&gt;" style="edgeLabel;resizable=0;html=1;align=left;verticalAlign=bottom;" connectable="0" vertex="1" parent="U06THFbZJZRiATKQvTop-44">
          <mxGeometry x="-1" relative="1" as="geometry">
            <mxPoint y="20" as="offset" />
          </mxGeometry>
        </mxCell>
        <mxCell id="U06THFbZJZRiATKQvTop-46" value="&lt;font face=&quot;Times New Roman&quot; style=&quot;font-size: 14px;&quot;&gt;1..*&lt;/font&gt;" style="edgeLabel;resizable=0;html=1;align=right;verticalAlign=bottom;" connectable="0" vertex="1" parent="U06THFbZJZRiATKQvTop-44">
          <mxGeometry x="1" relative="1" as="geometry">
            <mxPoint y="20" as="offset" />
          </mxGeometry>
        </mxCell>
        <mxCell id="U06THFbZJZRiATKQvTop-47" value="&lt;font face=&quot;Times New Roman&quot;&gt;&lt;span&gt;&amp;nbsp;linked to&lt;/span&gt;&lt;/font&gt;" style="edgeLabel;html=1;align=center;verticalAlign=middle;resizable=0;points=[];fontSize=15;" vertex="1" connectable="0" parent="U06THFbZJZRiATKQvTop-44">
          <mxGeometry x="0.0389" y="-4" relative="1" as="geometry">
            <mxPoint as="offset" />
          </mxGeometry>
        </mxCell>
        <mxCell id="U06THFbZJZRiATKQvTop-48" value="" style="endArrow=none;html=1;edgeStyle=orthogonalEdgeStyle;rounded=0;entryX=0.5;entryY=1;entryDx=0;entryDy=0;exitX=0.75;exitY=0;exitDx=0;exitDy=0;" edge="1" parent="1" source="U06THFbZJZRiATKQvTop-43" target="U06THFbZJZRiATKQvTop-2">
          <mxGeometry relative="1" as="geometry">
            <mxPoint x="330" y="830" as="sourcePoint" />
            <mxPoint x="490" y="830" as="targetPoint" />
          </mxGeometry>
        </mxCell>
        <mxCell id="U06THFbZJZRiATKQvTop-49" value="&lt;font face=&quot;Times New Roman&quot; style=&quot;font-size: 14px;&quot;&gt;1&lt;/font&gt;" style="edgeLabel;resizable=0;html=1;align=left;verticalAlign=bottom;" connectable="0" vertex="1" parent="U06THFbZJZRiATKQvTop-48">
          <mxGeometry x="-1" relative="1" as="geometry" />
        </mxCell>
        <mxCell id="U06THFbZJZRiATKQvTop-50" value="1" style="edgeLabel;resizable=0;html=1;align=right;verticalAlign=bottom;fontFamily=Times New Roman;fontSize=14;" connectable="0" vertex="1" parent="U06THFbZJZRiATKQvTop-48">
          <mxGeometry x="1" relative="1" as="geometry">
            <mxPoint y="20" as="offset" />
          </mxGeometry>
        </mxCell>
        <mxCell id="U06THFbZJZRiATKQvTop-51" value="&amp;nbsp;&lt;font face=&quot;Times New Roman&quot;&gt;derives&lt;/font&gt;&amp;nbsp;" style="edgeLabel;html=1;align=center;verticalAlign=middle;resizable=0;points=[];fontSize=15;" vertex="1" connectable="0" parent="U06THFbZJZRiATKQvTop-48">
          <mxGeometry x="0.0973" y="-1" relative="1" as="geometry">
            <mxPoint as="offset" />
          </mxGeometry>
        </mxCell>
        <mxCell id="U06THFbZJZRiATKQvTop-52" value="" style="endArrow=none;html=1;edgeStyle=orthogonalEdgeStyle;rounded=0;entryX=0.454;entryY=1.035;entryDx=0;entryDy=0;exitX=0.75;exitY=1;exitDx=0;exitDy=0;entryPerimeter=0;" edge="1" parent="1" source="U06THFbZJZRiATKQvTop-43" target="U06THFbZJZRiATKQvTop-37">
          <mxGeometry relative="1" as="geometry">
            <mxPoint x="490" y="910" as="sourcePoint" />
            <mxPoint x="1340" y="960" as="targetPoint" />
            <Array as="points">
              <mxPoint x="243" y="890" />
              <mxPoint x="838" y="890" />
            </Array>
          </mxGeometry>
        </mxCell>
        <mxCell id="U06THFbZJZRiATKQvTop-53" value="&lt;font face=&quot;Times New Roman&quot; style=&quot;font-size: 14px;&quot;&gt;1&lt;/font&gt;" style="edgeLabel;resizable=0;html=1;align=left;verticalAlign=bottom;" connectable="0" vertex="1" parent="U06THFbZJZRiATKQvTop-52">
          <mxGeometry x="-1" relative="1" as="geometry">
            <mxPoint y="20" as="offset" />
          </mxGeometry>
        </mxCell>
        <mxCell id="U06THFbZJZRiATKQvTop-54" value="&lt;font face=&quot;Times New Roman&quot; style=&quot;font-size: 14px;&quot;&gt;1..*&lt;/font&gt;" style="edgeLabel;resizable=0;html=1;align=right;verticalAlign=bottom;" connectable="0" vertex="1" parent="U06THFbZJZRiATKQvTop-52">
          <mxGeometry x="1" relative="1" as="geometry">
            <mxPoint y="20" as="offset" />
          </mxGeometry>
        </mxCell>
        <mxCell id="U06THFbZJZRiATKQvTop-55" value="" style="endArrow=none;html=1;edgeStyle=orthogonalEdgeStyle;rounded=0;entryX=0;entryY=0.5;entryDx=0;entryDy=0;exitX=1;exitY=0.5;exitDx=0;exitDy=0;" edge="1" parent="1" source="U06THFbZJZRiATKQvTop-3" target="U06THFbZJZRiATKQvTop-37">
          <mxGeometry relative="1" as="geometry">
            <mxPoint x="680" y="700" as="sourcePoint" />
            <mxPoint x="1530" y="750" as="targetPoint" />
          </mxGeometry>
        </mxCell>
        <mxCell id="U06THFbZJZRiATKQvTop-56" value="&lt;font face=&quot;Times New Roman&quot; style=&quot;font-size: 14px;&quot;&gt;1&lt;/font&gt;" style="edgeLabel;resizable=0;html=1;align=left;verticalAlign=bottom;" connectable="0" vertex="1" parent="U06THFbZJZRiATKQvTop-55">
          <mxGeometry x="-1" relative="1" as="geometry">
            <mxPoint y="20" as="offset" />
          </mxGeometry>
        </mxCell>
        <mxCell id="U06THFbZJZRiATKQvTop-57" value="&lt;font face=&quot;Times New Roman&quot; style=&quot;font-size: 14px;&quot;&gt;1..*&lt;/font&gt;" style="edgeLabel;resizable=0;html=1;align=right;verticalAlign=bottom;" connectable="0" vertex="1" parent="U06THFbZJZRiATKQvTop-55">
          <mxGeometry x="1" relative="1" as="geometry">
            <mxPoint y="20" as="offset" />
          </mxGeometry>
        </mxCell>
        <mxCell id="U06THFbZJZRiATKQvTop-58" value="&lt;font face=&quot;Times New Roman&quot;&gt;&lt;span style=&quot;font-size: 14px;&quot;&gt;&amp;nbsp;&lt;/span&gt;&lt;/font&gt;" style="edgeLabel;html=1;align=center;verticalAlign=middle;resizable=0;points=[];" vertex="1" connectable="0" parent="U06THFbZJZRiATKQvTop-55">
          <mxGeometry x="0.0389" y="-4" relative="1" as="geometry">
            <mxPoint as="offset" />
          </mxGeometry>
        </mxCell>
        <mxCell id="U06THFbZJZRiATKQvTop-63" value="&lt;p style=&quot;margin: 4px 0px 0px;&quot;&gt;&lt;b&gt;Sustainability Data&lt;/b&gt;&lt;/p&gt;&lt;hr style=&quot;border-style:solid;&quot;&gt;&lt;div style=&quot;height:2px;&quot;&gt;&lt;/div&gt;" style="verticalAlign=top;align=center;overflow=fill;html=1;whiteSpace=wrap;fontFamily=Times New Roman;fontSize=18;" vertex="1" parent="1">
          <mxGeometry x="975" y="530" width="190" height="80" as="geometry" />
        </mxCell>
      </root>
    </mxGraphModel>
  </diagram>
</mxfile>
